<?xml version="1.0" encoding="UTF-8"?>
<svg version="1.1" viewBox="0 0 954.6 347.9" xml:space="preserve" xmlns="http://www.w3.org/2000/svg">
<style type="text/css">
	.st0{fill:#FFFFFF;}
</style>
<g transform="translate(0,-340.1)" fill="#f8ab1c">
	<path class="st0" d="m321.7 595c-50.6 19.4-82.6 93-208.6 93-68.6 0-113.1-54.9-113.1-118.1 0-86.5 83.7-229.8 197.8-229.8 37.3 0 79.7 24.1 79.7 75 0 52.1-57.8 110.2-110.9 110.2-23 0-34.8-5.7-34.8-16.9 0-1.8-0.4-4.3-0.4-7.2 0-9 1.4-19 11.5-19 6.1 0 9 3.6 20.5 3.6 33.4 0 71.1-27.6 71.1-67.1 0-21.2-11.8-39.5-43.4-39.5-73.6 0-135.7 124.6-135.7 192.4 0 47.8 26.9 71.4 70.7 71.4 81.1 0 127.1-61.4 195.7-85.8v37.8z"/>
	<path class="st0" d="m276.1 581c0-39.5 26.2-94.8 78.6-94.8 29.1 0 51 16.9 51 43.8 0 29.1-33.4 59.6-78.3 71.1 7.9 12.9 14.7 15.8 24.1 15.8 31.6 0 70.7-24.8 91.2-42.4l24.8 23.3c-11.5 10.8-23.3 20.1-35.9 28.4-21.9 14.4-52.4 28-82.6 28-48.5 0.1-72.9-34-72.9-73.2zm94-43.4c0-10.4-4.3-18-11.1-18-33 0-35.9 36.3-35.9 52.4 18.3 0.1 47-19.7 47-34.4z"/>
	<path class="st0" d="m457.4 497.7c3.9-9.7 7.2-11.9 19-11.9 13.3 0 13.6 1.8 13.6 16.2v15.8c0 6.1 0 11.8 0.4 17.9h2.2c10.4-18.7 25.1-49.9 53.1-49.9 10.1 0 19 6.1 19 16.5 0 7.9-6.1 30.9-6.1 40.2 0 16.9 7.2 21.9 15.8 21.9 11.5 0 24.4-5.7 34.5-11.5 6.1-3.2 12.2-7.2 17.9-11.5l-2.9 40.9c-12.9 8.3-34.8 21.2-56 21.2-38.4 0-44.5-31.2-49.2-60.7h-2.9l-34.5 87.6c-7.5 18-12.2 23.7-21.9 23.7-21.2 0-24.8-18-24.8-36.6 0.1-30 12.3-97.5 22.8-119.8z"/>
	<path class="st0" d="m594.1 581c0-39.5 26.2-94.8 78.6-94.8 29.1 0 51 16.9 51 43.8 0 29.1-33.4 59.6-78.3 71.1 7.9 12.9 14.7 15.8 24.1 15.8 31.6 0 70.7-24.8 91.2-42.4l24.8 23.3c-11.5 10.8-23.3 20.1-35.9 28.4-21.9 14.4-52.4 28-82.6 28-48.5 0.1-72.9-34-72.9-73.2zm94.1-43.4c0-10.4-4.3-18-11.1-18-33 0-35.9 36.3-35.9 52.4 18.3 0.1 47-19.7 47-34.4z"/>
	<path class="st0" d="m954.6 611.2c-11.5 15.4-40.9 43.8-69.3 43.8-16.9 0-27.6-10.1-35.9-29.1-13.3 13.3-36.6 28.7-60.3 28.7-24.4 0-48.5-19-48.5-49.5 0-52.8 51.7-118.8 103.8-118.8 12.9 0 11.8 10.1 18.3 11.8 3.2 1.4 6.1 1.4 10.1 1.4h8.6c7.9 0 13.6 2.2 13.6 16.2 0 23-12.2 56-12.2 81.9 0 11.1 1.4 17.6 8.6 17.6 10.4 0 24.4-10.8 34.8-21.2 6.1-6.5 12.6-13.6 19.4-21.5zm-149.7 9.3c19.4 0 31.6-34.5 33.4-49.2l11.8-51.7c-31.6 0-60 46.7-60 77.9 0 11.5 3.3 23 14.8 23z"/>
	
</g>
</svg>
