<?xml version="1.0" encoding="UTF-8"?>
<svg id="Layer_1" width="357.57" height="437.63" version="1.1" viewBox="0 0 357.57 437.63" xml:space="preserve" xmlns="http://www.w3.org/2000/svg" xmlns:cc="http://creativecommons.org/ns#" xmlns:dc="http://purl.org/dc/elements/1.1/" xmlns:rdf="http://www.w3.org/1999/02/22-rdf-syntax-ns#"><metadata id="metadata41"><rdf:RDF><cc:Work rdf:about=""><dc:format>image/svg+xml</dc:format><dc:type rdf:resource="http://purl.org/dc/dcmitype/StillImage"/><dc:title/></cc:Work></rdf:RDF></metadata>
<style id="style2" type="text/css">
	.st0{fill:#FFFFFF;}
</style>
<g id="g34" transform="translate(-332.73 -.31751)" fill="#f8ab1c">
	
	
	
	
	
	<g id="g32" transform="translate(0 .31751)" fill="#f8ab1c">
		<path id="path14" class="st0" d="m542 219.9c-76 0-152.9-13.4-152.9-38.9v-3.4c-35.9 12.7-57.8 28.1-56.3 42.6 2.8 26.9 85.2 40.6 184.1 30.5 80-8.2 149.3-33.4 171.2-57.7 0.4-0.4-0.1-1-0.6-0.7-24.5 15.2-74.1 27.6-145.5 27.6z"/>
		<path id="path16" class="st0" d="m690.2 34.2c0 18.9-66.3 34.2-148.2 34.2-81.8 0-148.2-15.3-148.2-34.2s66.4-34.2 148.2-34.2 148.2 15.3 148.2 34.2z"/>
		<path id="path18" class="st0" d="m690.2 181.1"/>
		<path id="path20" class="st0" d="m648.2 64.5c-28.4 6.5-66.2 10.1-106.2 10.1s-77.7-3.6-106.2-10.2c-20.5-4.7-34.6-10.6-42-17.6v35.8c13.2 15.9 74.2 28 147.4 28 76.5 0 139.7-13.2 148.9-30.2v-33.5c-7.4 6.9-21.4 12.8-41.9 17.6z"/>
		<g id="g26">
			<path id="path22" class="st0" d="m409.8 343.5-0.1 0.1 0.1-0.1z"/>
			<path id="path24" class="st0" d="m677.2 267.4c4.9-21.6 11.4-46.9 13-68.9-23.8 28.1-100.2 50.7-172.8 58.1-22 2.3-43.6 3.4-63.8 3.4-21.3 0-41.2-1.2-58.7-3.7 0.5 17.8 2.8 35.6 6.9 53.1 2.1 8.3 4.7 16.4 7.8 24.5 0.7-0.8 1.5-1.5 2.3-2.3 5.2-5.2 11.1-9.8 17.3-13.6 6.3-3.8 12.8-7 19.6-9.5s13.8-4.5 21-5.5l0.1 0.9c-13.8 3.6-26.9 9.7-38.2 18-5.7 4-11 8.7-15.6 13.9-1.2 1.3-2.3 2.6-3.4 4l-2.8 3.7c0.1 0 0.1 0 0.2 0.1 1.5 0.9 3 1.7 4.5 2.5 12.4 6.5 25.9 9.9 39.3 12.6 6.7 1.4 13.6 1.9 20.6 2.2s14-0.4 21.2-0.9l0.3 0.9c-1.8 0.9-3.6 1.6-5.4 2.4-0.3 4.9-2.4 9.3-6.9 14.5-2.8 3.2-6.1 6.1-9.7 8.7-57 39.2-107.3 2.7-133.1-23.9 19.8 12.5 47.3 22.4 69 2.3 3.2-2.9 6.2-5.5 9.1-7.9-2-1-4-2.1-5.9-3.2-2.5 2.1-4.9 4.2-7.4 6.5-19.4 17.9-45 7.7-63-4-2.6-1.7-6-1.2-8 1.2s-1.9 5.8 0.3 8c18.4 19.3 49.7 44.6 87.6 44.6 10.3 0 21.1-1.9 32.3-6.3 8 7.8 16.6 15 25.7 21.5 10.1 7.1 22.1 11.5 34.5 12.2 6.2 0.4 12.4-0.1 18.5-1.4 3-0.7 6-1.6 8.9-2.6 2.8-1 5.6-2.1 8.4-3.2 7.3-3 14.5-6.5 21.4-10.4h2.2c41.1 0 75.2-26.2 95.6-46.7 2.6-2.6 2.8-6.4 0.6-9.3-2.3-2.9-6.1-3.6-9.2-1.7-10.1 6.1-22.3 11.6-34.8 12.7 10.5-12.4 19.5-26.1 26.8-40.5 10.5-21.4 18.2-44 23.7-67zm-205.9 18.8c-1.7-1.4-3.4-2.9-5.2-4.3l-2.8-1.8c-0.5-0.3-0.9-0.6-1.4-0.9l-1.5-0.7c-3.9-2.1-8.4-3-12.8-2.9-4.4 0-8.8 1.1-12.8 3-4 2-7.7 4.5-11 7.6l-0.5-0.5c1.5-5 4.9-9.1 9-12.1 2.1-1.6 4.5-2.6 7-3.6 2.6-0.8 5.3-1.3 8.1-1.4h2.1l2.1 0.3c1.3 0.3 2.8 0.3 4 0.9l3.8 1.5c1.2 0.6 2.3 1.4 3.4 2.2 2.3 1.3 3.8 3.5 5.5 5.4 1.4 2.1 2.6 4.4 3.4 6.8zm51-12.8c5.2-3.9 11.9-6.2 18.9-6.2 6.9 0 13.9 2 19.1 6.1 2.8 1.7 4.8 4.4 6.9 6.7 1.8 2.6 3.3 5.4 4.3 8.4l-0.6 0.6c-2.2-1.8-4.2-3.7-6.5-5.3l-3.5-2.3c-0.6-0.4-1.1-0.8-1.7-1.1l-1.9-0.9c-4.9-2.6-10.5-3.7-15.9-3.6-5.5 0-11 1.4-16 3.8-2.5 1.2-4.9 2.6-7.2 4.2-2.3 1.5-4.5 3.3-6.5 5.2l-0.6-0.6c1.8-6.2 6-11.3 11.2-15zm142 94c0.2-0.1 0.6-0.4 1.1 0.2 0.4 0.5 0.1 0.8-0.1 1-29.5 29.6-88.9 71.7-155.7 20.7-8.1-5.2-13-14-13-23.6 0-8.3 3.5-16 9.7-21.3l0.5-0.5c0.2-0.3 6.1-7 18.6-7.7 0.7 0 1.5-0.1 2.2-0.1 12.5 0 32.7 6 61.2 32.4 19.1 17.5 45.2 17.2 75.5-1.1z"/>
		</g>
		<path id="path28" class="st0" d="m541.3 151.7c-73.3 0-134.3-12.1-147.4-28v54.2c0 18.9 66.3 34.2 148.2 34.2s148.2-15.3 148.2-34.2v-56.4c-9.4 17-72.5 30.2-149 30.2z"/>
		<path id="path30" class="st0" d="m682.6 195s7.3-4.5 7.6-6.4c0 0 0.1 1.5-2 4.3-2.2 2.7-5.6 2.1-5.6 2.1z"/>
	</g>
</g>
</svg>
