<?xml version="1.0" encoding="utf-8"?>
<!-- Generator: Adobe Illustrator 21.1.0, SVG Export Plug-In . SVG Version: 6.00 Build 0)  -->
<svg version="1.1" id="Layer_1" xmlns="http://www.w3.org/2000/svg" xmlns:xlink="http://www.w3.org/1999/xlink" x="0px" y="0px"
	 viewBox="0 0 954.6 688" style="enable-background:new 0 0 954.6 688;" xml:space="preserve">
<style type="text/css">
	.st0{fill:#000000;}
</style>
<g>
	<path class="st0" d="M321.7,595c-50.6,19.4-82.6,93-208.6,93C44.5,688,0,633.1,0,569.9c0-86.5,83.7-229.8,197.8-229.8
		c37.3,0,79.7,24.1,79.7,75c0,52.1-57.8,110.2-110.9,110.2c-23,0-34.8-5.7-34.8-16.9c0-1.8-0.4-4.3-0.4-7.2c0-9,1.4-19,11.5-19
		c6.1,0,9,3.6,20.5,3.6c33.4,0,71.1-27.6,71.1-67.1c0-21.2-11.8-39.5-43.4-39.5c-73.6,0-135.7,124.6-135.7,192.4
		c0,47.8,26.9,71.4,70.7,71.4c81.1,0,127.1-61.4,195.7-85.8V595z"/>
	<path class="st0" d="M276.1,581c0-39.5,26.2-94.8,78.6-94.8c29.1,0,51,16.9,51,43.8c0,29.1-33.4,59.6-78.3,71.1
		c7.9,12.9,14.7,15.8,24.1,15.8c31.6,0,70.7-24.8,91.2-42.4l24.8,23.3c-11.5,10.8-23.3,20.1-35.9,28.4c-21.9,14.4-52.4,28-82.6,28
		C300.5,654.3,276.1,620.2,276.1,581L276.1,581z M370.1,537.6c0-10.4-4.3-18-11.1-18c-33,0-35.9,36.3-35.9,52.4
		C341.4,572.1,370.1,552.3,370.1,537.6L370.1,537.6z"/>
	<path class="st0" d="M457.4,497.7c3.9-9.7,7.2-11.9,19-11.9c13.3,0,13.6,1.8,13.6,16.2v15.8c0,6.1,0,11.8,0.4,17.9h2.2
		c10.4-18.7,25.1-49.9,53.1-49.9c10.1,0,19,6.1,19,16.5c0,7.9-6.1,30.9-6.1,40.2c0,16.9,7.2,21.9,15.8,21.9
		c11.5,0,24.4-5.7,34.5-11.5c6.1-3.2,12.2-7.2,17.9-11.5l-2.9,40.9c-12.9,8.3-34.8,21.2-56,21.2c-38.4,0-44.5-31.2-49.2-60.7h-2.9
		l-34.5,87.6c-7.5,18-12.2,23.7-21.9,23.7c-21.2,0-24.8-18-24.8-36.6C434.7,587.5,446.9,520,457.4,497.7L457.4,497.7z"/>
	<path class="st0" d="M594.1,581c0-39.5,26.2-94.8,78.6-94.8c29.1,0,51,16.9,51,43.8c0,29.1-33.4,59.6-78.3,71.1
		c7.9,12.9,14.7,15.8,24.1,15.8c31.6,0,70.7-24.8,91.2-42.4l24.8,23.3c-11.5,10.8-23.3,20.1-35.9,28.4c-21.9,14.4-52.4,28-82.6,28
		C618.5,654.3,594.1,620.2,594.1,581L594.1,581z M688.2,537.6c0-10.4-4.3-18-11.1-18c-33,0-35.9,36.3-35.9,52.4
		C659.5,572.1,688.2,552.3,688.2,537.6L688.2,537.6z"/>
	<path class="st0" d="M954.6,611.2c-11.5,15.4-40.9,43.8-69.3,43.8c-16.9,0-27.6-10.1-35.9-29.1c-13.3,13.3-36.6,28.7-60.3,28.7
		c-24.4,0-48.5-19-48.5-49.5c0-52.8,51.7-118.8,103.8-118.8c12.9,0,11.8,10.1,18.3,11.8c3.2,1.4,6.1,1.4,10.1,1.4h8.6
		c7.9,0,13.6,2.2,13.6,16.2c0,23-12.2,56-12.2,81.9c0,11.1,1.4,17.6,8.6,17.6c10.4,0,24.4-10.8,34.8-21.2
		c6.1-6.5,12.6-13.6,19.4-21.5L954.6,611.2z M804.9,620.5c19.4,0,31.6-34.5,33.4-49.2l11.8-51.7c-31.6,0-60,46.7-60,77.9
		C790.1,609,793.4,620.5,804.9,620.5L804.9,620.5z"/>
	<g>
		<path class="st0" d="M542,219.9c-76,0-152.9-13.4-152.9-38.9v-3.4c-35.9,12.7-57.8,28.1-56.3,42.6c2.8,26.9,85.2,40.6,184.1,30.5
			c80-8.2,149.3-33.4,171.2-57.7c0.4-0.4-0.1-1-0.6-0.7C663,207.5,613.4,219.9,542,219.9z"/>
		<path class="st0" d="M690.2,34.2c0,18.9-66.3,34.2-148.2,34.2c-81.8,0-148.2-15.3-148.2-34.2C393.8,15.3,460.2,0,542,0
			C623.8,0,690.2,15.3,690.2,34.2z"/>
		<path class="st0" d="M690.2,181.1L690.2,181.1z"/>
		<path class="st0" d="M648.2,64.5C619.8,71,582,74.6,542,74.6c-40,0-77.7-3.6-106.2-10.2c-20.5-4.7-34.6-10.6-42-17.6v35.8
			c13.2,15.9,74.2,28,147.4,28c76.5,0,139.7-13.2,148.9-30.2V46.9C682.7,53.8,668.7,59.7,648.2,64.5z"/>
		<g>
			<path class="st0" d="M409.8,343.5C409.8,343.5,409.8,343.5,409.8,343.5l-0.1,0.1C409.8,343.5,409.8,343.5,409.8,343.5z"/>
			<path class="st0" d="M677.2,267.4c4.9-21.6,11.4-46.9,13-68.9c-23.8,28.1-100.2,50.7-172.8,58.1c-22,2.3-43.6,3.4-63.8,3.4
				c-21.3,0-41.2-1.2-58.7-3.7c0.5,17.8,2.8,35.6,6.9,53.1c2.1,8.3,4.7,16.4,7.8,24.5c0.7-0.8,1.5-1.5,2.3-2.3
				c5.2-5.2,11.1-9.8,17.3-13.6c6.3-3.8,12.8-7,19.6-9.5c6.8-2.5,13.8-4.5,21-5.5l0.1,0.9c-13.8,3.6-26.9,9.7-38.2,18
				c-5.7,4-11,8.7-15.6,13.9c-1.2,1.3-2.3,2.6-3.4,4l-2.8,3.7c0.1,0,0.1,0,0.2,0.1c1.5,0.9,3,1.7,4.5,2.5
				c12.4,6.5,25.9,9.9,39.3,12.6c6.7,1.4,13.6,1.9,20.6,2.2c7,0.3,14-0.4,21.2-0.9l0.3,0.9c-1.8,0.9-3.6,1.6-5.4,2.4
				c-0.3,4.9-2.4,9.3-6.9,14.5c-2.8,3.2-6.1,6.1-9.7,8.7c-57,39.2-107.3,2.7-133.1-23.9c19.8,12.5,47.3,22.4,69,2.3
				c3.2-2.9,6.2-5.5,9.1-7.9c-2-1-4-2.1-5.9-3.2c-2.5,2.1-4.9,4.2-7.4,6.5c-19.4,17.9-45,7.7-63-4c-2.6-1.7-6-1.2-8,1.2
				c-2,2.4-1.9,5.8,0.3,8c18.4,19.3,49.7,44.6,87.6,44.6c10.3,0,21.1-1.9,32.3-6.3c8,7.8,16.6,15,25.7,21.5
				c10.1,7.1,22.1,11.5,34.5,12.2c6.2,0.4,12.4-0.1,18.5-1.4c3-0.7,6-1.6,8.9-2.6c2.8-1,5.6-2.1,8.4-3.2c7.3-3,14.5-6.5,21.4-10.4
				c0.7,0,1.5,0,2.2,0c41.1,0,75.2-26.2,95.6-46.7c2.6-2.6,2.8-6.4,0.6-9.3c-2.3-2.9-6.1-3.6-9.2-1.7c-10.1,6.1-22.3,11.6-34.8,12.7
				c10.5-12.4,19.5-26.1,26.8-40.5C664,313,671.7,290.4,677.2,267.4z M471.3,286.2c-1.7-1.4-3.4-2.9-5.2-4.3l-2.8-1.8
				c-0.5-0.3-0.9-0.6-1.4-0.9l-1.5-0.7c-3.9-2.1-8.4-3-12.8-2.9c-4.4,0-8.8,1.1-12.8,3c-4,2-7.7,4.5-11,7.6l-0.5-0.5
				c1.5-5,4.9-9.1,9-12.1c2.1-1.6,4.5-2.6,7-3.6c2.6-0.8,5.3-1.3,8.1-1.4l2.1,0l2.1,0.3c1.3,0.3,2.8,0.3,4,0.9l3.8,1.5
				c1.2,0.6,2.3,1.4,3.4,2.2c2.3,1.3,3.8,3.5,5.5,5.4c1.4,2.1,2.6,4.4,3.4,6.8L471.3,286.2z M522.3,273.4c5.2-3.9,11.9-6.2,18.9-6.2
				c6.9,0,13.9,2,19.1,6.1c2.8,1.7,4.8,4.4,6.9,6.7c1.8,2.6,3.3,5.4,4.3,8.4l-0.6,0.6c-2.2-1.8-4.2-3.7-6.5-5.3l-3.5-2.3
				c-0.6-0.4-1.1-0.8-1.7-1.1l-1.9-0.9c-4.9-2.6-10.5-3.7-15.9-3.6c-5.5,0-11,1.4-16,3.8c-2.5,1.2-4.9,2.6-7.2,4.2
				c-2.3,1.5-4.5,3.3-6.5,5.2l-0.6-0.6C512.9,282.2,517.1,277.1,522.3,273.4z M664.3,367.4c0.2-0.1,0.6-0.4,1.1,0.2
				c0.4,0.5,0.1,0.8-0.1,1c-29.5,29.6-88.9,71.7-155.7,20.7c-8.1-5.2-13-14-13-23.6c0-8.3,3.5-16,9.7-21.3l0.5-0.5
				c0.2-0.3,6.1-7,18.6-7.7c0.7,0,1.5-0.1,2.2-0.1c12.5,0,32.7,6,61.2,32.4C607.9,386,634,385.7,664.3,367.4z"/>
		</g>
		<path class="st0" d="M541.3,151.7c-73.3,0-134.3-12.1-147.4-28v54.2c0,18.9,66.3,34.2,148.2,34.2s148.2-15.3,148.2-34.2v-56.4
			C680.9,138.5,617.8,151.7,541.3,151.7z"/>
		<path class="st0" d="M682.6,195c0,0,7.3-4.5,7.6-6.4c0,0,0.1,1.5-2,4.3C686,195.6,682.6,195,682.6,195z"/>
	</g>
</g>
</svg>
