<?xml version="1.0" standalone="no"?>
<!DOCTYPE svg PUBLIC "-//W3C//DTD SVG 20010904//EN"
 "http://www.w3.org/TR/2001/REC-SVG-20010904/DTD/svg10.dtd">
<svg version="1.0" xmlns="http://www.w3.org/2000/svg"
 width="266.000000pt" height="190.000000pt" viewBox="0 0 266.000000 190.000000"
 preserveAspectRatio="xMidYMid meet">

<g transform="translate(0.000000,190.000000) scale(0.100000,-0.100000)"
fill="#ffffff" stroke="none">
<path d="M2290 1665 c12 -31 3 -32 -26 -4 l-23 22 -31 -20 -32 -20 36 -22 c20
-13 36 -24 36 -26 0 -1 -33 4 -72 11 -87 17 -78 16 -78 5 0 -5 35 -16 78 -24
l77 -14 -92 -2 -93 -1 0 -88 0 -89 -182 -7 c-101 -4 -214 -11 -253 -16 -38 -5
-71 -7 -72 -6 -2 1 1 36 5 76 l7 73 50 18 50 17 -43 3 -43 4 40 54 c23 30 41
56 41 57 0 1 -66 -27 -147 -62 -91 -40 -147 -69 -145 -76 2 -7 13 -23 24 -35
l21 -23 -30 -47 c-16 -27 -36 -58 -44 -70 -7 -13 -23 -23 -34 -23 -63 0 -678
-116 -682 -129 -5 -11 -122 0 -131 12 -5 7 -19 40 -32 75 -12 34 -26 62 -30
62 -14 0 -295 -102 -303 -110 -12 -10 153 -462 167 -457 6 2 77 28 159 57 81
29 147 56 147 61 0 5 -11 38 -25 74 -23 63 -23 65 -5 65 11 0 20 -4 20 -9 0
-5 78 11 173 36 164 43 368 85 376 78 1 -2 -20 -41 -47 -87 l-51 -84 -148 -49
c-201 -66 -417 -152 -602 -241 -108 -52 -165 -74 -192 -74 -35 0 -38 -2 -43
-32 -8 -52 -28 -349 -24 -353 2 -2 30 39 62 91 33 52 64 98 70 102 18 14 419
190 586 257 424 171 533 190 1145 205 428 11 513 14 519 21 14 15 181 327 172
322 -6 -4 -54 -37 -106 -74 l-95 -67 -350 -5 c-202 -3 -411 -12 -495 -21 -80
-9 -149 -16 -154 -16 -4 0 29 36 74 81 81 81 82 81 148 90 37 5 167 12 288 16
l222 6 22 54 c12 29 24 53 26 53 2 0 26 -14 53 -30 l49 -30 83 45 c80 43 88
45 167 45 l82 0 0 100 0 100 -130 0 -130 0 0 60 0 60 -35 0 c-33 0 -34 -1 -25
-25z m39 -27 c0 -28 -2 -30 -9 -13 -12 28 -12 45 0 45 6 0 10 -15 9 -32z m-54
-8 c16 -16 25 -30 19 -30 -19 0 -75 41 -69 50 10 16 19 12 50 -20z m55 -160
l0 -80 -120 0 -120 0 0 80 0 80 120 0 120 0 0 -80z m260 0 l0 -80 -120 0 -120
0 0 80 0 80 120 0 120 0 0 -80z m-1037 -17 c-9 -99 -2 -94 -132 -109 l-64 -7
43 64 c24 35 44 66 46 67 5 7 79 31 95 32 14 0 16 -8 12 -47z m789 -117 l-63
-34 -44 25 c-25 13 -47 29 -50 34 -4 5 41 9 107 9 l113 0 -63 -34z m-1949 -93
c-20 -49 -38 -90 -39 -91 -1 -2 -42 15 -90 38 -48 23 -83 45 -78 49 8 8 221
89 236 90 4 1 -9 -38 -29 -86z m46 -103 l-48 -55 71 -10 71 -10 24 -64 c21
-57 22 -63 6 -57 -41 16 -223 118 -223 125 0 9 86 216 97 234 3 6 16 -16 29
-48 l22 -60 -49 -55z m-188 39 c46 -23 86 -42 87 -44 2 -2 -2 -20 -8 -41 -10
-30 -10 -38 1 -45 56 -32 55 -28 14 -132 -21 -54 -41 -97 -44 -97 -3 0 -25 55
-49 123 -24 67 -56 157 -72 200 -16 42 -25 77 -21 77 4 0 46 -18 92 -41z m375
-3 c1 -1 -3 -27 -9 -58 -9 -50 -13 -58 -33 -58 -12 0 -24 7 -28 15 -4 11 -21
15 -66 15 -33 0 -60 3 -60 6 0 3 17 25 37 49 l37 44 60 -6 c34 -3 62 -6 62 -7z
m1900 -58 c-13 -24 -43 -77 -66 -118 -23 -41 -45 -79 -49 -83 -5 -5 -24 -7
-44 -5 l-36 3 32 74 c30 68 38 78 102 122 39 27 74 49 78 49 4 0 -3 -19 -17
-42z m-2006 -173 l75 -38 -134 -49 c-74 -26 -135 -47 -137 -46 -1 2 12 39 30
83 18 44 36 88 40 99 6 16 8 17 29 3 12 -8 56 -31 97 -52z m-370 -440 c0 -80
-2 -87 -38 -144 -20 -33 -41 -60 -45 -61 -5 0 -6 17 -3 38 3 20 8 85 11 145
l7 107 34 0 34 0 0 -85z"/>
<path d="M690 576 c0 -4 -13 -81 -30 -173 -16 -91 -30 -172 -30 -179 0 -20 93
-18 131 2 47 24 81 106 87 213 6 114 -7 132 -97 139 -33 2 -61 1 -61 -2z m88
-58 c21 -21 11 -135 -20 -211 -10 -27 -44 -54 -55 -43 -10 9 40 266 52 266 6
0 16 -5 23 -12z"/>
<path d="M916 418 c-16 -90 -30 -173 -33 -185 -5 -22 -3 -23 66 -23 39 0 71 4
71 9 0 5 3 16 6 25 5 13 -2 16 -36 16 l-42 0 6 38 c13 68 15 72 51 72 31 0 45
13 45 41 0 5 -16 9 -36 9 -36 0 -36 1 -30 31 3 17 6 40 6 50 0 15 8 19 39 19
38 0 51 11 51 46 0 11 -16 14 -68 14 l-69 0 -27 -162z"/>
<path d="M1116 418 c-15 -90 -30 -173 -33 -185 -4 -20 -1 -23 26 -23 17 0 31
1 31 3 0 9 22 124 26 140 4 12 16 17 39 17 25 0 35 5 40 20 9 28 -2 40 -37 40
-27 0 -30 3 -24 23 3 12 6 32 6 45 0 19 5 22 45 22 43 0 45 1 45 30 l0 30 -68
0 -68 0 -28 -162z"/>
<path d="M1349 578 c-10 -24 -64 -355 -59 -361 4 -4 36 -7 71 -5 58 3 64 5 67
25 3 21 -1 23 -38 23 -35 0 -41 3 -37 18 3 9 8 34 11 54 6 34 10 37 44 40 29
2 38 8 40 25 3 18 -2 22 -30 25 -31 3 -33 5 -30 38 4 55 8 60 52 60 38 0 40 2
40 30 l0 30 -65 0 c-36 0 -65 -1 -66 -2z"/>
<path d="M1540 576 c0 -2 -13 -78 -30 -169 -16 -92 -30 -173 -30 -182 0 -22
47 -20 53 3 3 9 11 54 18 100 7 45 16 79 19 75 4 -5 13 -37 19 -73 22 -124 21
-120 47 -120 13 0 24 1 24 3 0 1 14 77 30 167 37 200 37 200 6 200 -27 0 -27
-2 -47 -123 -7 -42 -16 -74 -20 -70 -3 5 -14 50 -24 101 -16 85 -19 92 -41 92
-13 0 -24 -2 -24 -4z"/>
<path d="M1796 553 c-12 -55 -56 -318 -56 -330 0 -18 81 -17 126 2 27 11 40
27 60 70 27 58 43 179 30 230 -8 32 -57 55 -115 55 -35 0 -40 -3 -45 -27z m85
-33 c14 -8 19 -21 19 -53 -1 -46 -14 -117 -32 -160 -10 -27 -44 -54 -55 -43
-3 2 4 61 16 129 12 69 21 128 21 131 0 9 9 7 31 -4z"/>
<path d="M2060 578 c0 -2 -14 -79 -30 -173 -16 -93 -30 -176 -30 -182 0 -8 12
-13 28 -13 l28 0 28 158 c15 86 30 169 33 185 5 25 3 27 -26 27 -17 0 -31 -1
-31 -2z"/>
<path d="M2195 558 c-16 -65 -61 -339 -57 -343 3 -3 15 -5 28 -5 21 0 24 8 40
100 10 55 19 99 20 97 2 -2 10 -37 19 -78 25 -123 23 -119 50 -119 14 0 25 2
25 4 0 2 13 82 30 178 16 95 30 177 30 181 0 5 -12 7 -27 5 -26 -3 -28 -7 -43
-95 -9 -51 -18 -95 -21 -98 -3 -3 -14 40 -24 95 -17 93 -20 100 -41 100 -16 0
-25 -7 -29 -22z"/>
<path d="M2460 570 c0 -6 -13 -87 -30 -180 -16 -93 -30 -172 -30 -175 0 -3 14
-5 30 -5 17 0 30 2 30 4 0 2 14 78 30 169 17 92 30 173 30 182 0 10 -10 15
-30 15 -16 0 -30 -5 -30 -10z"/>
</g>
</svg>
