<svg id="color2" xmlns="http://www.w3.org/2000/svg" xmlns:xlink="http://www.w3.org/1999/xlink" viewBox="0 0 188.55 343.64"><defs><style>.cls-1{fill:url(#linear-gradient);}.cls-2{fill:url(#linear-gradient-2);}.cls-3{fill:url(#linear-gradient-3);}.cls-4{fill:url(#linear-gradient-4);}.cls-5{fill:#294395;}</style><linearGradient id="linear-gradient" x1="249.97" y1="457.23" x2="364.62" y2="258.65" gradientUnits="userSpaceOnUse"><stop offset="0.09" stop-color="#294395"/><stop offset="0.28" stop-color="#3884c4"/><stop offset="0.46" stop-color="#5ec2d5"/><stop offset="0.73" stop-color="#46b592"/><stop offset="0.94" stop-color="#48ac33"/></linearGradient><linearGradient id="linear-gradient-2" x1="250.9" y1="399.81" x2="358.43" y2="315.8" gradientUnits="userSpaceOnUse"><stop offset="0.06" stop-color="#3c8e2a"/><stop offset="0.5" stop-color="#45b28b"/><stop offset="0.53" stop-color="#46b592"/><stop offset="0.61" stop-color="#48b697"/><stop offset="0.71" stop-color="#4eb9a7"/><stop offset="0.82" stop-color="#57bec1"/><stop offset="0.89" stop-color="#5ec2d5"/></linearGradient><linearGradient id="linear-gradient-3" x1="236.38" y1="337.11" x2="244.68" y2="337.11" xlink:href="#linear-gradient-2"/><linearGradient id="linear-gradient-4" x1="334.39" y1="307.52" x2="371.83" y2="307.52" xlink:href="#linear-gradient-2"/></defs><title>lcs_logo</title><path class="cls-1" d="M263.77,445.89c-4.56-3.45-12.79-11.43-13.63-12.28a136,136,0,0,1-9.81-11.11A130.71,130.71,0,0,1,225,397.89a125,125,0,0,1-5.38-13.18,111.11,111.11,0,0,1-5.6-41.46,103.83,103.83,0,0,1,17.43-52.7,92.08,92.08,0,0,1,19.47-20.8,97.07,97.07,0,0,1,25.82-14.23c2.21-.83,4.52-1.55,6.76-2.24l.44-.14c2.3-.68,4.73-1.26,7.23-1.74a93.77,93.77,0,0,1,15.14-1.54,98.16,98.16,0,0,1,15.46.95,88.9,88.9,0,0,1,15.14,3.44A73,73,0,0,1,351,260.41a56.59,56.59,0,0,1,12.13,9.2,46.33,46.33,0,0,1,8.65,12.1l.12.24a45.08,45.08,0,0,1,3.25,9c0-1.15,0-2.3-.14-3.45a41,41,0,0,0-1-6.2,44.15,44.15,0,0,0-6.58-14.63,56.43,56.43,0,0,0-11.56-12.23,76.54,76.54,0,0,0-14.75-9.07,99.68,99.68,0,0,0-34.28-8.93c-2.73-.22-5.47-.34-8.24-.34-3.31,0-6.64.17-10,.5-3.13.32-6.2.77-9.14,1.37-3.43.71-6.21,1.39-8.74,2.14a115.4,115.4,0,0,0-16.91,6.26c-2.66,1.23-5.34,2.62-8,4.14-2.35,1.34-4.84,2.9-7.58,4.77a105.86,105.86,0,0,0-25.2,24.32,111.26,111.26,0,0,0-15.84,30,119.71,119.71,0,0,0-6.43,32.55,120.33,120.33,0,0,0,7.36,48.92,125.23,125.23,0,0,0,6.87,15.21,142.73,142.73,0,0,0,40.87,47.33c2.59,1.89,3.83,2.77,9.35,6.47,3.07,1.86,4.81,3,6.5,4,3.6,2,6,3.31,8.32,4.48a176.77,176.77,0,0,0,42.45,14.82q3,.62,5.85,1.12c2.47.43,4.92.82,7.3,1.14,1.28.17,2.55.33,3.79.47,6.17.66,11.74,1,17,1.09,5.51.09,11.21-.09,17-.54,3.71-.32,7.19-.73,10.5-1.21-3.77-.23-7.19-.51-10.48-.85-5.29-.54-10.66-1.29-16.41-2.3l-.74-.14q-4.29-.78-8.48-1.73c-4.18-.95-8.3-2-12.32-3.17-3-.87-5.92-1.79-8.79-2.78l-1.15-.4a180.47,180.47,0,0,1-41.14-20.32q-3.51-2.34-6.86-4.86C266.52,448,265.85,447.6,263.77,445.89Z" transform="translate(-190.63 -236.13)"/><path class="cls-2" d="M238.6,375.58s8.56,40.19,56,50.89c0,0,1-1.43-1.67-3.5s-41.54-12.85-46.3-40.09c0,0-1.9-7.26,1.7-5.31s26,36.45,59.17,38.1a10.07,10.07,0,0,0,5.47-1.94c2.83-2,4.89-1.85,6-18.88s4.38-28.52,16.13-37.6,4.54,41.46,1,43.6c0,0-4.68,4.75-6.1,7.35s-4.13,13.48,2.83,12.44,34.67-11.78,44.11-46.33c0,0,.73-15.22-.88-18.56s3.07,0,3.07,0,.14-12.14-1.37-15.11-18.73-3-11.92,24.33-17,42.72-17,42.72-6.62,4.58-2-5.45,8.37-42.92,6.23-49.34-2.83-26.08-26.47-12-36.11,15.38-47.5,6.81,48.76-26.57,50.42-26.18,25.79-5.12,8.27-20S310.13,284.06,309.61,284s-15.34.42-21.48,2.75-8.95,13.79-19.07,17.1-.83-8-.83-8a90.34,90.34,0,0,0-12.5,10.07c-5.11,5.21-3.22,18.64,5.11,15.87s21.84-19,36-21.22,38.44,4.77,21.8,9.34-50.81,18.11-56.45,29.4-4.87,21.11,30.17,42.43,2.82,31.53-16.45,9.44c0,0-16.93-13.72-20.73-22.39s-15.08-18.88-15.18-9.05C240,359.71,239.08,369.83,238.6,375.58Z" transform="translate(-190.63 -236.13)"/><path class="cls-3" d="M244.68,321.51a63.51,63.51,0,0,0-8.27,27.84C235.78,364.87,244.68,321.51,244.68,321.51Z" transform="translate(-190.63 -236.13)"/><path class="cls-4" d="M334.39,289.45s18.11,10.7,25,26.21,12.46,8.24,12.46,8.24S357.56,297,334.39,289.45Z" transform="translate(-190.63 -236.13)"/><polygon class="cls-5" points="87.61 320.9 80.78 320.9 80.78 279.92 84.2 279.92 84.2 273.08 80.78 273.08 73.95 273.08 70.53 273.08 70.53 279.92 73.95 279.92 73.95 320.9 73.95 327.73 80.78 327.73 87.61 327.73 94.44 327.73 94.44 320.9 94.44 314.07 87.61 314.07 87.61 320.9"/><polyline class="cls-5" points="142.15 320.89 142.15 300.41 142.15 293.58 128.49 293.58 128.49 279.92 135.31 279.92 135.31 286.75 142.15 286.75 142.15 279.92 142.15 273.08 135.31 273.08 128.49 273.08 121.65 273.08 121.65 279.92 121.65 293.58 121.65 301.6 135.28 301.55 135.35 322.08 128.48 322.09 128.48 313.98 121.65 313.98 121.65 327.73 128.49 327.73 135.31 327.73 142.15 327.73 142.15 320.9 142.15 320.89"/><polygon class="cls-5" points="104.58 273.08 97.75 273.08 97.75 279.92 97.75 320.9 97.75 327.73 104.58 327.73 111.41 327.73 118.24 327.73 118.24 320.9 118.24 314.07 111.41 314.07 111.41 320.9 104.58 320.9 104.58 279.92 111.41 279.92 111.41 286.75 118.24 286.75 118.24 279.92 118.24 273.08 111.41 273.08 104.58 273.08"/><rect class="cls-5" x="66.04" y="336.81" width="83" height="6.83"/></svg>