<?xml version="1.0" encoding="utf-8"?>
<!-- Generator: Adobe Illustrator 17.0.0, SVG Export Plug-In . SVG Version: 6.00 Build 0)  -->
<!DOCTYPE svg PUBLIC "-//W3C//DTD SVG 1.1//EN" "http://www.w3.org/Graphics/SVG/1.1/DTD/svg11.dtd">
<svg version="1.1" id="Livello_1" xmlns="http://www.w3.org/2000/svg" xmlns:xlink="http://www.w3.org/1999/xlink" x="0px" y="0px"
	 width="595.276px" height="144.07px" viewBox="0 0 595.276 144.07" enable-background="new 0 0 595.276 144.07"
	 xml:space="preserve">
<polygon fill="#FFFFFF" points="97.728,43.091 75.248,75.026 50.875,43.091 43.942,43.091 43.942,91.413 50.665,91.413 
	50.665,53.597 75.038,83.43 97.728,53.597 97.728,91.413 104.451,91.413 104.451,43.091 "/>
<path fill="#FFFFFF" d="M156.766,43.091l-25.422,47.903h7.144l6.302-11.346h16.177v-5.882h-13.025l13.025-24.791v-5.884H156.766z
	 M160.967,43.091v5.884l13.027,24.791h-13.027v5.882h16.389l6.303,11.346h6.933l-26.053-47.903H160.967z"/>
<polygon fill="#FFFFFF" points="197.526,43.091 197.526,48.133 220.847,48.133 220.847,90.994 227.57,90.994 227.57,48.133 
	250.89,48.133 250.89,43.091 "/>
<polygon fill="#FFFFFF" points="267.068,43.091 267.068,48.133 290.391,48.133 290.391,90.994 296.693,90.994 296.693,48.133 
	320.014,48.133 320.014,43.091 "/>
<rect x="342.703" y="43.091" fill="#FFFFFF" width="6.724" height="48.114"/>
<rect x="544.819" y="43.092" fill="#FFFFFF" width="6.514" height="48.532"/>
<polygon fill="#FFFFFF" points="474.436,43.091 474.436,91.205 520.028,91.205 520.028,84.901 480.95,84.901 480.95,43.091 "/>
<path fill="#FFFFFF" d="M412.668,43.091v6.514h-21.641v35.086h21.641v6.303h-21.641c-3.572,0-6.513-2.942-6.513-7.354V50.865
	c0-4.412,2.941-7.774,6.513-7.774H412.668z M434.308,43.091h-21.64v6.514h21.64v35.086h-21.64v6.303h21.64
	c3.781,0,6.724-2.942,6.724-7.354V50.865C441.032,46.453,438.089,43.091,434.308,43.091"/>
</svg>
