<?xml version="1.0" encoding="utf-8"?>
<!-- Generator: Adobe Illustrator 17.0.0, SVG Export Plug-In . SVG Version: 6.00 Build 0)  -->
<!DOCTYPE svg PUBLIC "-//W3C//DTD SVG 1.1//EN" "http://www.w3.org/Graphics/SVG/1.1/DTD/svg11.dtd">
<svg version="1.1" id="Livello_1" xmlns="http://www.w3.org/2000/svg" xmlns:xlink="http://www.w3.org/1999/xlink" x="0px" y="0px"
	 width="595.276px" height="144.07px" viewBox="0 0 595.276 144.07" enable-background="new 0 0 595.276 144.07"
	 xml:space="preserve">
<g>
	<polygon fill="#010202" points="97.728,33.091 75.248,65.026 50.875,33.091 43.942,33.091 43.942,81.413 50.665,81.413 
		50.665,43.597 75.038,73.43 97.728,43.597 97.728,81.413 104.451,81.413 104.451,33.091 	"/>
	<path fill="#010202" d="M156.766,33.091l-25.422,47.903h7.144l6.302-11.346h16.177v-5.882h-13.025l13.025-24.791v-5.884H156.766z
		 M160.967,33.091v5.884l13.027,24.791h-13.027v5.882h16.389l6.303,11.346h6.933l-26.053-47.903H160.967z"/>
	<polygon fill="#010202" points="197.526,33.091 197.526,38.133 220.847,38.133 220.847,80.994 227.57,80.994 227.57,38.133 
		250.89,38.133 250.89,33.091 	"/>
	<polygon fill="#010202" points="267.068,33.091 267.068,38.133 290.391,38.133 290.391,80.994 296.693,80.994 296.693,38.133 
		320.014,38.133 320.014,33.091 	"/>
	<rect x="342.703" y="33.091" fill="#010202" width="6.724" height="48.114"/>
	<rect x="544.819" y="33.092" fill="#010202" width="6.514" height="48.532"/>
	<polygon fill="#010202" points="474.436,33.091 474.436,81.205 520.028,81.205 520.028,74.901 480.95,74.901 480.95,33.091 	"/>
	<path fill="#010202" d="M412.668,33.091v6.514h-21.641v35.086h21.641v6.303h-21.641c-3.572,0-6.513-2.942-6.513-7.354V40.865
		c0-4.412,2.941-7.774,6.513-7.774H412.668z M434.308,33.091h-21.64v6.514h21.64v35.086h-21.64v6.303h21.64
		c3.781,0,6.724-2.942,6.724-7.354V40.865C441.032,36.453,438.089,33.091,434.308,33.091"/>
	<path fill="#010202" d="M493.521,107.596c0.662,1.073,1.697,1.498,2.285,1.673c0.537,0.149,1.086,0.2,1.573,0.2
		c1.875,0,3.749-0.813,3.749-2.835c0-1.888-1.673-2.375-2.86-2.624l-0.913-0.2c-0.8-0.151-1.624-0.3-1.624-1.05
		c0-0.674,0.774-1.074,1.661-1.074c1.413,0,1.987,0.875,2.287,1.311l1.349-1.011c-0.625-0.85-1.649-1.786-3.548-1.786
		c-2.074,0-3.484,1.074-3.484,2.747c0,1.462,1.086,2,1.485,2.162c0.274,0.112,0.55,0.174,1.111,0.313l1.063,0.226
		c0.801,0.186,0.825,0.199,1.025,0.274c0.275,0.112,0.662,0.313,0.662,0.874c0,0.3-0.112,0.75-0.75,1.013
		c-0.311,0.124-0.637,0.149-0.95,0.149c-1.861,0-2.523-1.011-2.735-1.337L493.521,107.596z M491.846,100.426h-6.469v1.497h2.385
		v7.32h1.648v-7.32h2.436V100.426z M482.251,105.022c-0.038,2.125-1.451,2.924-2.55,2.924c-1.461,0-2.562-1.187-2.562-3.174
		c0-1.837,1.013-3.061,2.525-3.061C481.401,101.711,482.289,103.297,482.251,105.022 M483.898,104.834
		c0.012-3.011-2.034-4.634-4.222-4.634c-2.411,0-4.233,1.949-4.233,4.647c0,1.112,0.3,2.262,1.173,3.273
		c0.899,1.036,1.924,1.349,3.035,1.349C482.363,109.469,483.884,107.359,483.898,104.834 M471.233,105.022
		c-0.038,2.125-1.45,2.924-2.55,2.924c-1.462,0-2.56-1.187-2.56-3.174c0-1.837,1.011-3.061,2.523-3.061
		C470.383,101.711,471.27,103.297,471.233,105.022 M472.88,104.834c0.013-3.011-2.035-4.634-4.222-4.634
		c-2.41,0-4.234,1.949-4.234,4.647c0,1.112,0.3,2.262,1.173,3.273c0.9,1.036,1.924,1.349,3.036,1.349
		C471.345,109.469,472.868,107.359,472.88,104.834 M458.04,101.849c0.974,0,1.399,0.012,1.751,0.186
		c0.686,0.351,0.699,1,0.699,1.188c0,1.287-1.189,1.349-1.551,1.362c-0.311,0.013-0.524,0.026-1.086,0.026h-0.575v-2.762H458.04z
		 M455.643,109.243h1.635v-3.272h1.475l1.75,3.272h1.884l-1.96-3.585c0.5-0.149,1.736-0.735,1.736-2.423
		c0-1.024-0.425-1.724-0.975-2.173c-0.773-0.624-1.56-0.624-2.735-0.636h-2.81V109.243z M446.561,106.657l-3.898-6.231h-1.486v8.817
		h1.611l-0.101-6.181l3.861,6.181h1.436v-8.817h-1.623L446.561,106.657z M433.756,106.084l1.224-4.06l1.212,4.06H433.756z
		 M437.141,109.243h1.761l-3.01-8.817h-1.873l-2.973,8.817h1.761l0.513-1.723h3.308L437.141,109.243z M427.186,109.243h1.623v-8.817
		h-1.623V109.243z M421.486,100.426h-1.66v8.817h5.158v-1.497h-3.498V100.426z M412.404,106.084l1.224-4.06l1.212,4.06H412.404z
		 M415.79,109.243h1.761l-3.01-8.817h-1.874l-2.972,8.817h1.762l0.511-1.723h3.31L415.79,109.243z M409.242,100.426h-6.47v1.497
		h2.386v7.32h1.647v-7.32h2.437V100.426z M398.711,109.243h1.623v-8.817h-1.623V109.243z M389.943,107.533v1.71h0.772
		c0,0.226,0.038,0.925-0.672,1.012v0.725c0.461-0.1,0.785-0.175,1.11-0.462c0.45-0.387,0.45-0.762,0.45-1.474v-1.511H389.943z
		 M389.239,100.426h-1.836l-1.937,3.66l-1.91-3.66h-1.861l2.948,5.332v3.485h1.623v-3.485L389.239,100.426z M376.033,101.849
		c0.974,0,1.399,0.012,1.749,0.186c0.688,0.351,0.7,1,0.7,1.188c0,1.287-1.187,1.349-1.55,1.362
		c-0.312,0.013-0.524,0.026-1.087,0.026h-0.576v-2.762H376.033z M373.635,109.243h1.634v-3.272h1.476l1.75,3.272h1.883l-1.958-3.585
		c0.499-0.149,1.734-0.735,1.734-2.423c0-1.024-0.424-1.724-0.974-2.173c-0.772-0.624-1.561-0.624-2.735-0.636h-2.81V109.243z
		 M367.921,100.426h-1.66v8.817h5.159v-1.497h-3.499V100.426z M363.025,101.899v-1.473h-6.269v8.817h6.581v-1.485h-4.959v-2.362
		h4.247v-1.423h-4.247v-2.074H363.025z M352.57,100.426l-1.236,6.721l-1.4-6.721h-1.536l-1.374,6.721l-1.199-6.721h-1.686
		l1.835,8.817h1.924l1.274-6.131l1.237,6.131h1.924l1.935-8.817H352.57z M342.3,101.899v-1.473h-6.268v8.817h6.581v-1.485h-4.959
		v-2.362h4.247v-1.423h-4.247v-2.074H342.3z M330.985,100.426v5.632c0,0.726,0,1.1-0.312,1.413c-0.187,0.2-0.525,0.35-1.012,0.35
		c-0.35,0-0.637-0.075-0.874-0.125v1.623c0.2,0.037,0.5,0.112,1.011,0.112c0.925,0,1.898-0.237,2.423-0.973
		c0.387-0.537,0.4-1.099,0.4-1.799v-6.233H330.985z M318.168,101.849c0.974,0,1.398,0.012,1.75,0.186
		c0.686,0.351,0.699,1,0.699,1.188c0,1.287-1.188,1.349-1.55,1.362c-0.313,0.013-0.524,0.026-1.087,0.026h-0.575v-2.762H318.168z
		 M315.77,109.243h1.635v-3.272h1.474l1.75,3.272h1.885l-1.96-3.585c0.5-0.149,1.736-0.735,1.736-2.423
		c0-1.024-0.425-1.724-0.975-2.173c-0.773-0.624-1.56-0.624-2.735-0.636h-2.81V109.243z M311.411,105.022
		c-0.038,2.125-1.45,2.924-2.55,2.924c-1.462,0-2.561-1.187-2.561-3.174c0-1.837,1.012-3.061,2.524-3.061
		C310.561,101.711,311.448,103.297,311.411,105.022 M313.058,104.834c0.013-3.011-2.035-4.634-4.222-4.634
		c-2.412,0-4.234,1.949-4.234,4.647c0,1.112,0.3,2.262,1.173,3.273c0.899,1.036,1.924,1.349,3.036,1.349
		C311.523,109.469,313.045,107.359,313.058,104.834 M298.505,101.899h4.198v-1.473h-5.833v8.817h1.635v-3.734h3.685v-1.411h-3.685
		V101.899z M287.788,106.657l-3.899-6.231h-1.485v8.817h1.61l-0.1-6.181l3.861,6.181h1.436v-8.817h-1.623L287.788,106.657z
		 M278.032,105.022c-0.038,2.125-1.449,2.924-2.55,2.924c-1.461,0-2.561-1.187-2.561-3.174c0-1.837,1.012-3.061,2.524-3.061
		C277.182,101.711,278.069,103.297,278.032,105.022 M279.68,104.834c0.012-3.011-2.035-4.634-4.223-4.634
		c-2.411,0-4.233,1.949-4.233,4.647c0,1.112,0.3,2.262,1.173,3.273c0.899,1.036,1.923,1.349,3.035,1.349
		C278.144,109.469,279.667,107.359,279.68,104.834 M266.852,109.243h1.623v-8.817h-1.623V109.243z M256.158,107.596
		c0.662,1.073,1.698,1.498,2.285,1.673c0.538,0.149,1.087,0.2,1.576,0.2c1.873,0,3.746-0.813,3.746-2.835
		c0-1.888-1.673-2.375-2.86-2.624l-0.912-0.2c-0.801-0.151-1.625-0.3-1.625-1.05c0-0.674,0.775-1.074,1.663-1.074
		c1.411,0,1.986,0.875,2.286,1.311l1.348-1.011c-0.623-0.85-1.648-1.786-3.547-1.786c-2.074,0-3.485,1.074-3.485,2.747
		c0,1.462,1.087,2,1.485,2.162c0.275,0.112,0.55,0.174,1.112,0.313l1.063,0.226c0.8,0.186,0.825,0.199,1.024,0.274
		c0.275,0.112,0.663,0.313,0.663,0.874c0,0.3-0.113,0.75-0.75,1.013c-0.312,0.124-0.637,0.149-0.949,0.149
		c-1.863,0-2.524-1.011-2.736-1.337L256.158,107.596z M246.44,107.596c0.662,1.073,1.699,1.498,2.284,1.673
		c0.537,0.149,1.089,0.2,1.575,0.2c1.874,0,3.747-0.813,3.747-2.835c0-1.888-1.673-2.375-2.859-2.624l-0.913-0.2
		c-0.8-0.151-1.625-0.3-1.625-1.05c0-0.674,0.775-1.074,1.663-1.074c1.412,0,1.986,0.875,2.286,1.311l1.348-1.011
		c-0.623-0.85-1.648-1.786-3.547-1.786c-2.074,0-3.485,1.074-3.485,2.747c0,1.462,1.087,2,1.485,2.162
		c0.275,0.112,0.55,0.174,1.112,0.313l1.063,0.226c0.8,0.186,0.825,0.199,1.025,0.274c0.275,0.112,0.662,0.313,0.662,0.874
		c0,0.3-0.112,0.75-0.75,1.013c-0.312,0.124-0.637,0.149-0.949,0.149c-1.863,0-2.523-1.011-2.736-1.337L246.44,107.596z
		 M239.756,106.084l1.225-4.06l1.211,4.06H239.756z M243.142,109.243h1.76l-3.009-8.817h-1.874l-2.974,8.817h1.762l0.512-1.723h3.31
		L243.142,109.243z M232.732,101.836c0.539,0,1.113,0.013,1.525,0.362c0.15,0.137,0.437,0.475,0.437,1.124
		c0,0.313-0.062,1.25-1.086,1.5c-0.288,0.076-0.587,0.076-0.938,0.076h-1.187v-3.062H232.732z M229.823,109.243h1.66v-2.985h1.287
		c0.538,0,1,0,1.487-0.112c1.573-0.35,2.123-1.611,2.123-2.786c0-1.787-1.21-2.56-2.073-2.797c-0.512-0.137-1.024-0.137-1.512-0.137
		h-2.972V109.243z M221.028,107.533v1.71h0.775c0,0.226,0.037,0.925-0.675,1.012v0.725c0.462-0.1,0.787-0.175,1.111-0.462
		c0.45-0.387,0.45-0.762,0.45-1.474v-1.511H221.028z M217.006,106.657l-3.899-6.231h-1.485v8.817h1.61l-0.1-6.181l3.862,6.181h1.435
		v-8.817h-1.623L217.006,106.657z M208.385,101.899v-1.473h-6.269v8.817h6.581v-1.485h-4.959v-2.362h4.247v-1.423h-4.247v-2.074
		H208.385z M196.108,100.426l-1.685,6.544l-1.723-6.544h-2.401v8.817h1.614l-0.162-7.245l1.91,7.245h1.487l1.896-7.245l-0.149,7.245
		h1.609v-8.817H196.108z M186.002,105.022c-0.037,2.125-1.45,2.924-2.549,2.924c-1.462,0-2.563-1.187-2.563-3.174
		c0-1.837,1.013-3.061,2.525-3.061C185.151,101.711,186.04,103.297,186.002,105.022 M187.649,104.834
		c0.012-3.011-2.035-4.634-4.222-4.634c-2.412,0-4.233,1.949-4.233,4.647c0,1.112,0.299,2.262,1.173,3.273
		c0.898,1.036,1.924,1.349,3.035,1.349C186.113,109.469,187.636,107.359,187.649,104.834 M175.891,100.426l-1.235,6.721l-1.4-6.721
		h-1.536l-1.374,6.721l-1.199-6.721h-1.686l1.835,8.817h1.924l1.275-6.131l1.237,6.131h1.922l1.936-8.817H175.891z M157.017,101.849
		c0.974,0,1.399,0.012,1.749,0.186c0.687,0.351,0.699,1,0.699,1.188c0,1.287-1.186,1.349-1.548,1.362
		c-0.313,0.013-0.525,0.026-1.089,0.026h-0.574v-2.762H157.017z M154.619,109.243h1.635v-3.272h1.475l1.749,3.272h1.885l-1.96-3.585
		c0.499-0.149,1.735-0.735,1.735-2.423c0-1.024-0.424-1.724-0.973-2.173c-0.774-0.624-1.561-0.624-2.736-0.636h-2.81V109.243z
		 M150.26,105.022c-0.037,2.125-1.45,2.924-2.549,2.924c-1.462,0-2.562-1.187-2.562-3.174c0-1.837,1.013-3.061,2.524-3.061
		C149.409,101.711,150.296,103.297,150.26,105.022 M151.906,104.834c0.013-3.011-2.034-4.634-4.22-4.634
		c-2.412,0-4.234,1.949-4.234,4.647c0,1.112,0.299,2.262,1.173,3.273c0.898,1.036,1.924,1.349,3.036,1.349
		C150.371,109.469,151.894,107.359,151.906,104.834 M137.354,101.899h4.197v-1.473h-5.832v8.817h1.635v-3.734h3.685v-1.411h-3.685
		V101.899z M128.509,101.899v-1.473h-6.268v8.817h6.58v-1.485h-4.959v-2.362h4.247v-1.423h-4.247v-2.074H128.509z M118.317,100.426
		l-1.912,6.958l-1.973-6.958h-1.735l2.597,8.817h2.223l2.51-8.817H118.317z M109.495,105.022c-0.037,2.125-1.449,2.924-2.548,2.924
		c-1.462,0-2.563-1.187-2.563-3.174c0-1.837,1.013-3.061,2.525-3.061C108.646,101.711,109.532,103.297,109.495,105.022
		 M111.143,104.834c0.012-3.011-2.035-4.634-4.222-4.634c-2.412,0-4.234,1.949-4.234,4.647c0,1.112,0.3,2.262,1.174,3.273
		c0.898,1.036,1.924,1.349,3.036,1.349C109.607,109.469,111.13,107.359,111.143,104.834 M97.649,100.426h-1.66v8.817h5.158v-1.497
		h-3.498V100.426z"/>
</g>
<rect fill="none" width="595.276" height="144.07"/>
</svg>
