<?xml version="1.0" standalone="no"?>
<!DOCTYPE svg PUBLIC "-//W3C//DTD SVG 20010904//EN"
 "http://www.w3.org/TR/2001/REC-SVG-20010904/DTD/svg10.dtd">
<svg version="1.0" xmlns="http://www.w3.org/2000/svg"
 width="1463.000000pt" height="1491.000000pt" viewBox="0 0 1463.000000 1491.000000"
 preserveAspectRatio="xMidYMid meet">

<g transform="translate(0.000000,1491.000000) scale(0.100000,-0.100000)"
fill="#ffffff" stroke="none">
<path d="M12659 11075 c-551 -90 -935 -391 -1084 -850 -65 -200 -88 -535 -51
-757 64 -387 255 -622 581 -710 67 -18 107 -22 245 -22 140 0 184 4 291 27
313 66 535 182 727 381 134 138 206 256 271 439 55 156 72 261 78 482 7 278
-24 460 -107 625 -92 182 -260 314 -476 371 -103 27 -349 35 -475 14z m102
-648 c102 -68 147 -243 136 -527 -9 -218 -48 -347 -132 -439 -54 -60 -123 -91
-201 -91 -52 0 -67 4 -102 30 -80 58 -119 175 -129 390 -12 281 39 494 143
592 74 69 216 91 285 45z"/>
<path d="M10965 10726 c-159 -29 -307 -56 -327 -60 l-38 -7 -2 -438 -3 -438
-288 389 c-251 337 -291 387 -310 383 -12 -3 -188 -35 -391 -70 -202 -36 -372
-68 -377 -71 -11 -6 -12 -2191 -1 -2197 5 -4 365 57 640 108 l32 6 0 440 c0
257 4 438 9 435 5 -3 136 -177 291 -386 168 -227 289 -380 299 -380 9 0 188
30 399 67 l382 67 0 1103 c0 876 -3 1103 -12 1102 -7 -1 -143 -25 -303 -53z"/>
<path d="M8448 10282 l-368 -65 0 -1105 0 -1104 28 6 c15 3 182 33 372 66 190
33 357 63 373 66 l27 6 0 1099 0 1099 -32 -1 c-18 -1 -198 -31 -400 -67z"/>
<path d="M3120 9715 c-1301 -228 -2382 -417 -2402 -420 l-38 -7 0 -2879 0
-2879 23 5 c12 2 1095 192 2407 420 1312 228 2395 417 2408 420 l22 5 0 2875
0 2875 -27 -1 c-16 0 -1092 -187 -2393 -414z m1630 -165 c338 -83 533 -330
581 -734 15 -125 7 -412 -15 -529 -113 -609 -561 -993 -1239 -1058 -277 -27
-508 39 -672 193 -199 186 -286 465 -272 873 7 182 27 306 71 438 152 451 550
754 1095 833 133 19 341 12 451 -16z m-1800 -520 c0 -176 -4 -280 -10 -280 -5
0 -137 -22 -292 -50 -155 -27 -286 -50 -290 -50 -4 0 -8 -371 -8 -824 l0 -824
-67 -12 c-38 -6 -214 -37 -393 -68 l-325 -58 -3 824 c-2 778 -3 823 -20 818
-9 -3 -136 -26 -282 -51 -146 -25 -273 -48 -282 -51 -17 -5 -18 13 -18 275 0
155 1 281 3 281 1 1 441 79 977 174 536 96 983 174 993 175 16 1 17 -19 17
-279z m1700 -2175 c231 -25 446 -159 559 -349 49 -82 97 -234 117 -366 22
-151 15 -449 -15 -590 -37 -181 -97 -331 -185 -465 -187 -280 -476 -463 -866
-546 -88 -19 -135 -23 -290 -23 -173 0 -191 2 -275 28 -232 70 -395 224 -485
457 -58 150 -74 259 -74 504 -1 250 12 340 70 515 63 188 151 327 296 466 136
130 288 222 474 287 222 78 452 105 674 82z m-2282 -461 c315 -65 547 -319
625 -684 28 -136 28 -376 -2 -517 -99 -473 -427 -843 -857 -968 -64 -19 -1137
-215 -1175 -215 -5 0 -9 416 -9 1099 l0 1100 53 10 c38 8 773 137 1047 184 64
11 246 6 318 -9z"/>
<path d="M4215 8936 c-97 -31 -148 -77 -195 -177 -43 -92 -60 -182 -67 -349
-9 -223 17 -373 80 -466 43 -64 85 -87 156 -87 141 0 246 102 302 295 29 101
39 404 16 524 -29 152 -86 239 -174 263 -47 14 -68 13 -118 -3z"/>
<path d="M4162 6199 c-135 -67 -197 -215 -209 -499 -18 -436 113 -640 342
-532 99 47 164 139 201 284 21 83 30 387 15 486 -31 201 -104 292 -234 292
-40 0 -70 -8 -115 -31z"/>
<path d="M1805 5804 c-11 -3 -30 -7 -42 -10 l-23 -4 0 -542 0 -541 44 6 c91
13 157 47 226 116 108 109 162 240 180 436 17 196 -17 341 -102 431 -73 77
-203 127 -283 108z"/>
<path d="M6396 9920 c-367 -65 -670 -121 -672 -123 -2 -2 -3 -499 -2 -1103 l3
-1100 325 58 c179 31 355 62 393 68 l67 12 0 383 0 383 33 5 c17 2 33 4 33 3
1 0 84 -156 184 -346 101 -190 184 -346 185 -348 2 -2 878 150 883 154 3 2
-343 597 -419 720 l-19 32 63 45 c88 63 195 181 239 263 20 38 49 110 64 159
25 81 27 106 28 250 1 141 -2 169 -22 235 -54 174 -154 278 -324 337 -63 22
-94 26 -223 29 l-150 4 -669 -120z m506 -501 c42 -23 61 -126 37 -200 -15 -44
-55 -86 -93 -98 -27 -9 -311 -61 -329 -61 -4 0 -7 72 -7 159 l0 159 73 12 c39
7 101 18 137 25 82 17 156 18 182 4z"/>
<path d="M13891 8499 c-211 -38 -386 -70 -388 -72 -1 -2 -2 -499 -1 -1104 l3
-1099 300 52 c165 30 342 61 393 70 l92 16 0 1104 c0 607 -3 1104 -7 1103 -5
-1 -181 -32 -392 -70z"/>
<path d="M12895 8324 c-132 -24 -282 -51 -332 -60 l-93 -16 -2 -439 -3 -438
-285 384 c-244 329 -289 384 -310 384 -14 0 -194 -30 -400 -67 l-375 -67 -3
-1102 c-1 -607 1 -1103 4 -1103 12 0 639 111 656 116 17 5 18 37 20 447 l3
441 289 -389 c159 -215 290 -391 290 -392 1 -1 177 29 391 67 215 38 393 70
398 70 4 0 7 495 7 1099 0 605 -3 1102 -7 1104 -5 2 -116 -16 -248 -39z"/>
<path d="M9742 7770 c-238 -43 -434 -79 -436 -81 -10 -14 -672 -2315 -666
-2317 7 -3 691 116 696 121 1 1 16 63 34 137 17 73 32 135 33 136 3 3 570 104
583 104 5 0 24 -54 43 -121 19 -66 38 -122 41 -124 5 -3 810 135 818 141 2 1
-149 470 -334 1043 -307 945 -340 1041 -358 1040 -12 -1 -216 -36 -454 -79z
m22 -1090 c48 -177 69 -273 62 -275 -37 -12 -277 -47 -282 -42 -6 6 53 299
114 572 19 84 8 108 106 -255z"/>
<path d="M7897 7445 c-284 -50 -519 -94 -521 -96 -2 -2 -54 -242 -115 -534
-62 -291 -113 -530 -115 -532 -1 -1 -55 219 -120 490 -65 270 -118 493 -120
494 -1 1 -263 -44 -581 -100 l-580 -102 -3 -1103 c-2 -878 0 -1102 10 -1102 7
1 159 27 338 59 l325 57 5 493 5 493 134 -459 c73 -252 137 -462 141 -467 6
-6 700 109 706 117 0 1 59 256 130 567 l129 565 3 -543 c1 -298 6 -542 10
-542 10 0 739 128 770 135 l22 5 0 1100 0 1100 -27 -1 c-16 -1 -261 -43 -546
-94z"/>
</g>
</svg>
