<svg id="Livello_1" data-name="Livello 1" xmlns="http://www.w3.org/2000/svg" viewBox="0 0 465.33 340.71">
    <defs>
        <style>
            .color {
                fill: #000000;
            }
        </style>
    </defs>
    <path class="color" d="M146.47,151.82q-1.66,4-9.85,24.57t-13.26,33.47H95.65q-4.59-11.79-9.12-23.33T72.72,151.82l26.05-6.94q1.1,3.36,4.65,15t6.3,20.48h.66q3.32-10.71,6.65-21.67t4.15-13.76Z"/>
    <path class="color" d="M172.85,155.59H149V140.43h23.82Zm0,54.27H149c0-2.84,0-6.2.05-10.08s0-8.36,0-13.41q0-6.19,0-12.34T149,161h23.82c0,4.42,0,8.13,0,11.15s0,7.73,0,14.14q0,10.47,0,14.7C172.84,203.81,172.85,206.77,172.85,209.86Z"/>
    <path class="color" d="M237.6,184.31A22,22,0,0,1,234,196.9a25.6,25.6,0,0,1-10.61,8.66,43.24,43.24,0,0,1-12.6,3.45,140.68,140.68,0,0,1-17.86,1q-4.5,0-6.72-.05c-1.49,0-3,0-4.45,0q0-2.84,0-10.82t0-24.7q0-14.16,0-22.21t0-11.7h23.82L205.49,161a82.33,82.33,0,0,1,8.43,1.09,46.23,46.23,0,0,1,7.86,2.22q7.77,2.88,11.79,8.26A19.14,19.14,0,0,1,237.6,184.31Zm-23.73-.66a8.77,8.77,0,0,0-.83-3.75,6.75,6.75,0,0,0-2.49-2.86,7.54,7.54,0,0,0-2.93-1.18,18.22,18.22,0,0,0-2.94-.24h-.52v17a14.9,14.9,0,0,0,3.15-.37,8.22,8.22,0,0,0,2.72-1,9.58,9.58,0,0,0,2.84-2.79A9,9,0,0,0,213.87,183.65Z"/>
    <path class="color" d="M295.57,187.7H264.5a4.69,4.69,0,0,0,1.89,3.5,13,13,0,0,0,5.88,2.51,32.39,32.39,0,0,0,5.82.78c1.87.09,3.59.12,5.17.12,2.3,0,4.19,0,5.68,0s2.78,0,3.88-.07L290.6,210.2c-1.2.09-2.69.19-4.46.28s-3.72.14-5.87.14A77.84,77.84,0,0,1,263.72,209a35.7,35.7,0,0,1-13.19-5.66,23.81,23.81,0,0,1-7.27-8.17,21.58,21.58,0,0,1-2.54-10.3,24.93,24.93,0,0,1,1.83-9.93,24.55,24.55,0,0,1,6.51-8.4,24.92,24.92,0,0,1,9.09-5.07,35.85,35.85,0,0,1,21.6-.17A22.25,22.25,0,0,1,288,166a21.26,21.26,0,0,1,5.9,9.23A41.42,41.42,0,0,1,295.57,187.7Zm-21.88-7.77a8.63,8.63,0,0,0-1.35-5,4.76,4.76,0,0,0-4.24-2,5.25,5.25,0,0,0-4.29,1.87,8.45,8.45,0,0,0-1.68,5.09Z"/>
    <path class="color" d="M351.55,187.13v22.73c-.72.07-3.53.23-8.43.5s-9.3.4-13.21.4c-2.72,0-6.29-.21-10.73-.63a41.16,41.16,0,0,1-10.77-2.25,18.5,18.5,0,0,1-7.73-5.26,11.33,11.33,0,0,1-2.6-7.3,12.11,12.11,0,0,1,2.46-7.69q2.46-3.15,8.86-5.28A45.2,45.2,0,0,1,320,180.24q6-.54,7.64-.59a2.32,2.32,0,0,0-.73-1.78,7.54,7.54,0,0,0-3.43-1.16,32.15,32.15,0,0,0-3.6-.4c-1.33-.08-3-.12-4.88-.12-2.53,0-4.71,0-6.56.09s-3.47.12-4.86.15l1.9-16.25h9.33q11.22,0,17.78,1.66a28,28,0,0,1,11.21,5.49,19.19,19.19,0,0,1,6,8.32A33.52,33.52,0,0,1,351.55,187.13Zm-22.26,5.16v-5.11a13,13,0,0,0-1.77.19,10,10,0,0,0-3,1,6.42,6.42,0,0,0-1.85,1.61,4.16,4.16,0,0,0-.95,2.75,4.29,4.29,0,0,0,.92,2.93,6.1,6.1,0,0,0,2.11,1.57,7.56,7.56,0,0,0,1.73.52,13.54,13.54,0,0,0,2.35.19h.42v-5.69Z"/>
    <path class="color" d="M401.24,194.33l-2,16.1c-.79.06-1.82.11-3.08.15s-3.42,0-6.49,0q-13.78,0-20.81-4.83t-7-13.92q0-5.93.05-8.88c0-2,.05-3.78.05-5.43h-7.82V161h8.1V146.44h23.35V161h15.3v16.57h-15.3c0,.76,0,1.38,0,1.85s0,1.2,0,2.18c0,.66,0,1.46,0,2.39s0,1.57,0,1.92a8.26,8.26,0,0,0,2.32,6.13q2.32,2.29,11.28,2.3h2.13Z"/>
    <path class="color" d="M215,106.78c2-1.18,4.83-2.72,6-4.75s2.25-5.73,3.16-8.13c.48-1.25,1-2.5,1.5-3.74a115.74,115.74,0,0,1,19.5-31.08,118.41,118.41,0,0,1,13.23-13c2.38-2,4.84-3.9,7.37-5.7,2-1.4,6.18-3.15,7.32-5.1a21.38,21.38,0,0,0-5.2,1.7A91.34,91.34,0,0,0,238.1,55.78,86.91,86.91,0,0,0,226.63,69a84.62,84.62,0,0,0-4.62,7.4c-.57,1-4.18,6.54-3.65,7.52a56.84,56.84,0,0,0-12.11-15.42A24.12,24.12,0,0,0,197.13,75,60.49,60.49,0,0,1,215,106.78Z"/>
    <path class="color" d="M242.54,45.3c-10.21,5.79-17.86,14.11-22.06,24.79a.94.94,0,0,1-.49.51,3.22,3.22,0,0,1-1.22.44,49.35,49.35,0,0,0-8-10.65c1-1.23,2.57-1.75,3.83-2.75a39.9,39.9,0,0,1,5,6.4,52.49,52.49,0,0,1,9.62-11.65A32.54,32.54,0,0,1,242.54,45.3Z"/>
</svg>